<?xml version="1.0" encoding="UTF-8" standalone="no"?>
<svg width="40px" height="40px" viewBox="0 0 40 40" version="1.1" xmlns="http://www.w3.org/2000/svg" xmlns:xlink="http://www.w3.org/1999/xlink">
    <!-- Generator: Sketch 49.3 (51167) - http://www.bohemiancoding.com/sketch -->
    <title>instagram</title>
    <desc>Created with Sketch.</desc>
    <defs></defs>
    <g id="Welcome" stroke="none" stroke-width="1" fill="none" fill-rule="evenodd">
        <g id="Desktop-main" transform="translate(-1162.000000, -30.000000)" fill="#FFFFFF" fill-rule="nonzero">
            <g id="navbar" transform="translate(1.000000, 0.000000)">
                <g id="instagram" transform="translate(1161.000000, 30.000000)">
                    <path d="M27.5,0 L12.5,0 C5.5975,0 0,5.5975 0,12.5 L0,27.5 C0,34.4025 5.5975,40 12.5,40 L27.5,40 C34.4025,40 40,34.4025 40,27.5 L40,12.5 C40,5.5975 34.4025,0 27.5,0 Z M36.25,27.5 C36.25,32.325 32.325,36.25 27.5,36.25 L12.5,36.25 C7.675,36.25 3.75,32.325 3.75,27.5 L3.75,12.5 C3.75,7.675 7.675,3.75 12.5,3.75 L27.5,3.75 C32.325,3.75 36.25,7.675 36.25,12.5 L36.25,27.5 Z" id="Shape"></path>
                    <path d="M20,10 C14.4775,10 10,14.4775 10,20 C10,25.5225 14.4775,30 20,30 C25.5225,30 30,25.5225 30,20 C30,14.4775 25.5225,10 20,10 Z M20,26.25 C16.555,26.25 13.75,23.445 13.75,20 C13.75,16.5525 16.555,13.75 20,13.75 C23.445,13.75 26.25,16.5525 26.25,20 C26.25,23.445 23.445,26.25 20,26.25 Z" id="Shape"></path>
                    <circle id="Oval" cx="30.5" cy="9.5" r="1.5"></circle>
                </g>
            </g>
        </g>
    </g>
</svg>