<?xml version="1.0" encoding="UTF-8" standalone="no"?>
<svg width="40px" height="40px" viewBox="0 0 40 40" version="1.1" xmlns="http://www.w3.org/2000/svg" xmlns:xlink="http://www.w3.org/1999/xlink">
    <!-- Generator: Sketch 49.3 (51167) - http://www.bohemiancoding.com/sketch -->
    <title>linked-in-square-button</title>
    <desc>Created with Sketch.</desc>
    <defs></defs>
    <g id="Welcome" stroke="none" stroke-width="1" fill="none" fill-rule="evenodd">
        <g id="Desktop-main" transform="translate(-1226.000000, -30.000000)" fill="#FFFFFF" fill-rule="nonzero">
            <g id="navbar" transform="translate(1.000000, 0.000000)">
                <g id="linked-in-square-button" transform="translate(1225.000000, 30.000000)">
                    <path d="M37.0399339,0 L2.96332856,0 C1.32665502,0 0,1.28834189 0,2.8682986 L0,37.1399831 C0,38.7150042 1.32665502,40 2.96332856,40 L37.0383445,40 C38.6766911,40 40,38.7150042 40,37.1399831 L40,2.8682986 C40,1.28834189 38.6766074,0 37.0399339,0 Z M12.1299551,33.4816643 L6.08835862,33.4816643 L6.08835862,15.4266414 L12.1300388,15.4266414 L12.1300388,33.4816643 L12.1299551,33.4816643 Z M9.10497422,12.9633076 L9.06498803,12.9633076 C7.03665053,12.9633076 5.72496941,11.5666349 5.72496941,9.83995064 C5.72496941,8.06491483 7.07663673,6.71659364 9.14328736,6.71659364 C11.2116111,6.71659364 12.483306,8.06491483 12.5216191,9.83995064 C12.5232922,11.5666349 11.2132841,12.9633076 9.10497422,12.9633076 Z M33.9116414,33.4816643 L27.8816726,33.4816643 L27.8816726,23.8249976 C27.8816726,21.3983039 26.9950331,19.7300095 24.8083402,19.7300095 C23.1300074,19.7300095 22.1483379,20.8533038 21.7166878,21.9433041 C21.5583324,22.3133019 21.5166731,22.8549559 21.5166731,23.398283 L21.5166731,33.4815806 L15.4716468,33.4816643 C15.4716468,33.4816643 15.5482731,17.116602 15.4716468,15.4265578 L21.5166731,15.4265578 L21.5166731,17.9865946 C22.3100394,16.758232 23.7466983,14.9999268 26.9549632,14.9999268 C30.9349283,14.9999268 33.9116414,17.5816298 33.9116414,23.1282507 L33.9116414,33.4816643 Z M21.4799494,18.0561695 C21.4859599,18.0342313 21.4958772,18.012293 21.5218224,17.9883513 L21.5218224,18.0561695 L21.4799494,18.0561695 Z" id="LinkedIn__x28_alt_x29__3_"></path>
                </g>
            </g>
        </g>
    </g>
</svg>