<?xml version="1.0" encoding="UTF-8" standalone="no"?>
<svg width="55px" height="40px" viewBox="0 0 55 40" version="1.1" xmlns="http://www.w3.org/2000/svg" xmlns:xlink="http://www.w3.org/1999/xlink">
    <!-- Generator: Sketch 49.3 (51167) - http://www.bohemiancoding.com/sketch -->
    <title>twitter-logo</title>
    <desc>Created with Sketch.</desc>
    <defs></defs>
    <g id="Welcome" stroke="none" stroke-width="1" fill="none" fill-rule="evenodd">
        <g id="Desktop-main" transform="translate(-1290.000000, -30.000000)" fill="#FFFFFF" fill-rule="nonzero">
            <g id="navbar" transform="translate(1.000000, 0.000000)">
                <g id="twitter-logo" transform="translate(1289.000000, 30.000000)">
                    <path d="M48.7684049,17.7833433 C51.8574132,17.5142976 53.9527268,16.0317786 54.7590888,14.0202128 C53.6448106,14.7428429 50.185868,15.5306758 48.2755855,14.7803716 C48.181983,14.3065379 48.0773836,13.8564634 47.9747022,13.4501274 C46.5191332,7.80759145 41.5354427,3.26175781 36.3135263,3.81091892 C36.736016,3.63083512 37.1645157,3.46317088 37.5917367,3.31265106 C38.1665221,3.09530854 41.5388952,2.51604346 41.0078421,1.25937168 C40.5602894,0.154029702 36.4399919,2.09472295 35.6641914,2.34837923 C36.6883197,1.94177321 38.3819868,1.24236227 38.5634374,0 C36.9944457,0.227197185 35.4542252,1.01030525 34.2641188,2.14899108 C34.6937694,1.66071288 35.0197156,1.06565335 35.0888944,0.425235374 C30.9041493,3.2475833 28.4596168,8.93763759 26.4813062,14.4571927 C24.927915,12.8678924 23.5511152,11.6163505 22.3159977,10.9213944 C18.8510452,8.95977682 14.7081143,6.91311222 8.20466292,4.36439988 C8.00505444,6.63596675 9.26881523,9.65635287 12.9103593,11.6649488 C12.1213879,11.5534426 10.6786061,11.8022391 9.52468747,12.093964 C9.99461774,14.6962695 11.5293397,16.8402658 15.6841627,17.8770301 C13.7853886,18.0093256 12.8040975,18.4654749 11.9147465,19.4486461 C12.779546,21.2585288 14.8898207,23.3886205 18.6859622,22.9513706 C14.4654129,24.8718145 16.9650583,28.4282672 20.3993216,27.8978704 C14.5407296,34.2862557 5.3040103,33.8167419 0,28.4734906 C13.8484296,48.3950254 43.9517155,40.2550754 48.4378553,21.0668354 C51.7989756,21.0970744 53.7748566,19.8377027 55,18.4492754 C53.0635037,18.7962135 50.2567092,18.4376658 48.7684049,17.7833433 Z" id="Twitter__x28_alt_x29_"></path>
                </g>
            </g>
        </g>
    </g>
</svg>